<?xml version="1.0" encoding="UTF-8" standalone="no"?>
<svg
   xmlns:dc="http://purl.org/dc/elements/1.1/"
   xmlns:cc="http://creativecommons.org/ns#"
   xmlns:rdf="http://www.w3.org/1999/02/22-rdf-syntax-ns#"
   xmlns:svg="http://www.w3.org/2000/svg"
   xmlns="http://www.w3.org/2000/svg"
   xmlns:sodipodi="http://sodipodi.sourceforge.net/DTD/sodipodi-0.dtd"
   xmlns:inkscape="http://www.inkscape.org/namespaces/inkscape"
   version="1.1"
   id="svg2"
   xml:space="preserve"
   width="491.33868"
   height="570.67865"
   viewBox="0 0 491.33868 570.67865"
   sodipodi:docname="Raccoon.ai"><metadata
     id="metadata8"><rdf:RDF><cc:Work
         rdf:about=""><dc:format>image/svg+xml</dc:format><dc:type
           rdf:resource="http://purl.org/dc/dcmitype/StillImage" /></cc:Work></rdf:RDF></metadata><defs
     id="defs6"><linearGradient
       x1="0"
       y1="0"
       x2="1"
       y2="0"
       gradientUnits="userSpaceOnUse"
       gradientTransform="matrix(-48.636063,-76.732635,-76.732635,48.636063,77.926758,212.82227)"
       spreadMethod="pad"
       id="linearGradient30"><stop
         style="stop-opacity:1;stop-color:#d8e2e9"
         offset="0"
         id="stop24" /><stop
         style="stop-opacity:1;stop-color:#d8e2e9"
         offset="0.0674896"
         id="stop26" /><stop
         style="stop-opacity:1;stop-color:#638ca6"
         offset="1"
         id="stop28" /></linearGradient><linearGradient
       x1="0"
       y1="0"
       x2="1"
       y2="0"
       gradientUnits="userSpaceOnUse"
       gradientTransform="matrix(-48.635452,-76.731674,-76.731674,48.635452,182.32959,146.64551)"
       spreadMethod="pad"
       id="linearGradient52"><stop
         style="stop-opacity:1;stop-color:#d8e2e9"
         offset="0"
         id="stop46" /><stop
         style="stop-opacity:1;stop-color:#d8e2e9"
         offset="0.0674896"
         id="stop48" /><stop
         style="stop-opacity:1;stop-color:#638ca6"
         offset="1"
         id="stop50" /></linearGradient><linearGradient
       x1="0"
       y1="0"
       x2="1"
       y2="0"
       gradientUnits="userSpaceOnUse"
       gradientTransform="matrix(-48.637039,-76.734177,-76.734177,48.637039,113.07422,190.5459)"
       spreadMethod="pad"
       id="linearGradient74"><stop
         style="stop-opacity:1;stop-color:#d8e2e9"
         offset="0"
         id="stop68" /><stop
         style="stop-opacity:1;stop-color:#d8e2e9"
         offset="0.0674896"
         id="stop70" /><stop
         style="stop-opacity:1;stop-color:#638ca6"
         offset="1"
         id="stop72" /></linearGradient><linearGradient
       x1="0"
       y1="0"
       x2="1"
       y2="0"
       gradientUnits="userSpaceOnUse"
       gradientTransform="matrix(68.011749,70.144287,70.144287,-68.011734,66.65332,65.708008)"
       spreadMethod="pad"
       id="linearGradient96"><stop
         style="stop-opacity:1;stop-color:#39393b"
         offset="0"
         id="stop90" /><stop
         style="stop-opacity:1;stop-color:#39393b"
         offset="0.0674896"
         id="stop92" /><stop
         style="stop-opacity:1;stop-color:#638ca6"
         offset="1"
         id="stop94" /></linearGradient><linearGradient
       x1="0"
       y1="0"
       x2="1"
       y2="0"
       gradientUnits="userSpaceOnUse"
       gradientTransform="matrix(68.011261,70.143784,70.143784,-68.011246,31.558594,119.51855)"
       spreadMethod="pad"
       id="linearGradient118"><stop
         style="stop-opacity:1;stop-color:#39393b"
         offset="0"
         id="stop112" /><stop
         style="stop-opacity:1;stop-color:#39393b"
         offset="0.0674896"
         id="stop114" /><stop
         style="stop-opacity:1;stop-color:#638ca6"
         offset="1"
         id="stop116" /></linearGradient><linearGradient
       x1="0"
       y1="0"
       x2="1"
       y2="0"
       gradientUnits="userSpaceOnUse"
       gradientTransform="matrix(65.818436,22.824097,22.824097,-65.818436,22.304687,197.26025)"
       spreadMethod="pad"
       id="linearGradient140"><stop
         style="stop-opacity:1;stop-color:#39393b"
         offset="0"
         id="stop134" /><stop
         style="stop-opacity:1;stop-color:#39393b"
         offset="0.0674896"
         id="stop136" /><stop
         style="stop-opacity:1;stop-color:#638ca6"
         offset="1"
         id="stop138" /></linearGradient><clipPath
       clipPathUnits="userSpaceOnUse"
       id="clipPath150"><path
         d="M 0,428.009 H 368.504 V 0 H 0 Z"
         id="path148" /></clipPath><clipPath
       clipPathUnits="userSpaceOnUse"
       id="clipPath158"><path
         d="M 35.6709,65.8281 H 355.058 V 10.3633 H 35.6709 Z"
         id="path156" /></clipPath><clipPath
       clipPathUnits="userSpaceOnUse"
       id="clipPath162"><path
         d="m 355.058,38.097 c 0,-15.318 -71.495,-27.734 -159.696,-27.734 -88.195,0 -159.691,12.416 -159.691,27.734 0,15.316 71.496,27.731 159.691,27.731 88.201,0 159.696,-12.415 159.696,-27.731"
         id="path160" /></clipPath><radialGradient
       fx="0"
       fy="0"
       cx="0"
       cy="0"
       r="1"
       gradientUnits="userSpaceOnUse"
       gradientTransform="matrix(159.70023,0,0,-27.731369,195.36475,38.095703)"
       spreadMethod="pad"
       id="radialGradient174"><stop
         style="stop-opacity:0.6512398;stop-color:#ffffff"
         offset="0"
         id="stop168" /><stop
         style="stop-opacity:0;stop-color:#ffffff"
         offset="0.90578069"
         id="stop170" /><stop
         style="stop-opacity:0;stop-color:#ffffff"
         offset="1"
         id="stop172" /></radialGradient><mask
       maskUnits="userSpaceOnUse"
       x="0"
       y="0"
       width="1"
       height="1"
       id="mask176"><g
         id="g186"><g
           id="g184"><g
             id="g182"><g
               id="g180"><path
                 d="M -32767,32767 H 32767 V -32767 H -32767 Z"
                 style="fill:url(#radialGradient174);stroke:none"
                 id="path178" /></g></g></g></g></mask><radialGradient
       fx="0"
       fy="0"
       cx="0"
       cy="0"
       r="1"
       gradientUnits="userSpaceOnUse"
       gradientTransform="matrix(159.70023,0,0,-27.731369,195.36475,38.095703)"
       spreadMethod="pad"
       id="radialGradient194"><stop
         style="stop-opacity:1;stop-color:#130c0e"
         offset="0"
         id="stop188" /><stop
         style="stop-opacity:1;stop-color:#130c0e"
         offset="0.90578069"
         id="stop190" /><stop
         style="stop-opacity:1;stop-color:#130c0e"
         offset="1"
         id="stop192" /></radialGradient><linearGradient
       x1="0"
       y1="0"
       x2="1"
       y2="0"
       gradientUnits="userSpaceOnUse"
       gradientTransform="matrix(-51.50177,-31.292267,-31.292267,51.50177,268.47363,202.94531)"
       spreadMethod="pad"
       id="linearGradient230"><stop
         style="stop-opacity:1;stop-color:#638ca6"
         offset="0"
         id="stop226" /><stop
         style="stop-opacity:1;stop-color:#173b66"
         offset="1"
         id="stop228" /></linearGradient><linearGradient
       x1="0"
       y1="0"
       x2="1"
       y2="0"
       gradientUnits="userSpaceOnUse"
       gradientTransform="matrix(32.172195,16.641083,16.641083,-32.17218,226.90234,181.1543)"
       spreadMethod="pad"
       id="linearGradient250"><stop
         style="stop-opacity:1;stop-color:#cacfd4"
         offset="0"
         id="stop246" /><stop
         style="stop-opacity:1;stop-color:#ffffff"
         offset="1"
         id="stop248" /></linearGradient><linearGradient
       x1="0"
       y1="0"
       x2="1"
       y2="0"
       gradientUnits="userSpaceOnUse"
       gradientTransform="matrix(11.146668,-79.614929,-79.614929,-11.146668,220.6123,138.56152)"
       spreadMethod="pad"
       id="linearGradient270"><stop
         style="stop-opacity:1;stop-color:#638ca6"
         offset="0"
         id="stop266" /><stop
         style="stop-opacity:1;stop-color:#39393b"
         offset="1"
         id="stop268" /></linearGradient><linearGradient
       x1="0"
       y1="0"
       x2="1"
       y2="0"
       gradientUnits="userSpaceOnUse"
       gradientTransform="matrix(-27.069382,-38.214981,-38.214981,27.069382,139.34961,163.81445)"
       spreadMethod="pad"
       id="linearGradient290"><stop
         style="stop-opacity:1;stop-color:#638ca6"
         offset="0"
         id="stop286" /><stop
         style="stop-opacity:1;stop-color:#39393b"
         offset="1"
         id="stop288" /></linearGradient><clipPath
       clipPathUnits="userSpaceOnUse"
       id="clipPath300"><path
         d="M 0,428.009 H 368.504 V 0 H 0 Z"
         id="path298" /></clipPath><linearGradient
       x1="0"
       y1="0"
       x2="1"
       y2="0"
       gradientUnits="userSpaceOnUse"
       gradientTransform="matrix(127.17871,0,0,-127.17871,95.345703,152.58789)"
       spreadMethod="pad"
       id="linearGradient326"><stop
         style="stop-opacity:1;stop-color:#cacfd4"
         offset="0"
         id="stop322" /><stop
         style="stop-opacity:1;stop-color:#ffffff"
         offset="1"
         id="stop324" /></linearGradient><linearGradient
       x1="0"
       y1="0"
       x2="1"
       y2="0"
       gradientUnits="userSpaceOnUse"
       gradientTransform="matrix(-15.922684,-31.845383,-31.845383,15.922684,181.86523,76.956055)"
       spreadMethod="pad"
       id="linearGradient362"><stop
         style="stop-opacity:1;stop-color:#638ca6"
         offset="0"
         id="stop358" /><stop
         style="stop-opacity:1;stop-color:#39393b"
         offset="1"
         id="stop360" /></linearGradient><clipPath
       clipPathUnits="userSpaceOnUse"
       id="clipPath372"><path
         d="M 0,428.009 H 368.504 V 0 H 0 Z"
         id="path370" /></clipPath><linearGradient
       x1="0"
       y1="0"
       x2="1"
       y2="0"
       gradientUnits="userSpaceOnUse"
       gradientTransform="matrix(269,0,0,-269,151.59033,275.17773)"
       spreadMethod="pad"
       id="linearGradient398"><stop
         style="stop-opacity:1;stop-color:#cacfd4"
         offset="0"
         id="stop394" /><stop
         style="stop-opacity:1;stop-color:#ffffff"
         offset="1"
         id="stop396" /></linearGradient><linearGradient
       x1="0"
       y1="0"
       x2="1"
       y2="0"
       gradientUnits="userSpaceOnUse"
       gradientTransform="matrix(-40.01413,-19.006714,-19.006714,40.014145,227.66992,233.46484)"
       spreadMethod="pad"
       id="linearGradient420"><stop
         style="stop-opacity:1;stop-color:#d8e2e9"
         offset="0"
         id="stop414" /><stop
         style="stop-opacity:1;stop-color:#d8e2e9"
         offset="0.0674896"
         id="stop416" /><stop
         style="stop-opacity:1;stop-color:#638ca6"
         offset="1"
         id="stop418" /></linearGradient><linearGradient
       x1="0"
       y1="0"
       x2="1"
       y2="0"
       gradientUnits="userSpaceOnUse"
       gradientTransform="matrix(-205.94028,-103.86554,-103.86554,205.94028,297.96484,343.24512)"
       spreadMethod="pad"
       id="linearGradient442"><stop
         style="stop-opacity:1;stop-color:#d8e2e9"
         offset="0"
         id="stop436" /><stop
         style="stop-opacity:1;stop-color:#d8e2e9"
         offset="0.0674896"
         id="stop438" /><stop
         style="stop-opacity:1;stop-color:#638ca6"
         offset="1"
         id="stop440" /></linearGradient><linearGradient
       x1="0"
       y1="0"
       x2="1"
       y2="0"
       gradientUnits="userSpaceOnUse"
       gradientTransform="matrix(-19,-31,-31,19,149.48242,255.03516)"
       spreadMethod="pad"
       id="linearGradient462"><stop
         style="stop-opacity:1;stop-color:#638ca6"
         offset="0"
         id="stop458" /><stop
         style="stop-opacity:1;stop-color:#39393b"
         offset="1"
         id="stop460" /></linearGradient><linearGradient
       x1="0"
       y1="0"
       x2="1"
       y2="0"
       gradientUnits="userSpaceOnUse"
       gradientTransform="matrix(33.026794,-15.206299,15.206299,33.026794,218.36621,271.35645)"
       spreadMethod="pad"
       id="linearGradient482"><stop
         style="stop-opacity:1;stop-color:#638ca6"
         offset="0"
         id="stop478" /><stop
         style="stop-opacity:1;stop-color:#39393b"
         offset="1"
         id="stop480" /></linearGradient><clipPath
       clipPathUnits="userSpaceOnUse"
       id="clipPath492"><path
         d="M 0,428.009 H 368.504 V 0 H 0 Z"
         id="path490" /></clipPath><linearGradient
       x1="0"
       y1="0"
       x2="1"
       y2="0"
       gradientUnits="userSpaceOnUse"
       gradientTransform="matrix(35.108215,40.30925,40.30925,-35.108215,285.38574,225.45459)"
       spreadMethod="pad"
       id="linearGradient538"><stop
         style="stop-opacity:1;stop-color:#638ca6"
         offset="0"
         id="stop534" /><stop
         style="stop-opacity:1;stop-color:#39393b"
         offset="1"
         id="stop536" /></linearGradient><clipPath
       clipPathUnits="userSpaceOnUse"
       id="clipPath548"><path
         d="M 0,428.009 H 368.504 V 0 H 0 Z"
         id="path546" /></clipPath></defs><sodipodi:namedview
     pagecolor="#ffffff"
     bordercolor="#666666"
     borderopacity="1"
     objecttolerance="10"
     gridtolerance="10"
     guidetolerance="10"
     inkscape:pageopacity="0"
     inkscape:pageshadow="2"
     inkscape:window-width="640"
     inkscape:window-height="480"
     id="namedview4" /><g
     id="g10"
     inkscape:groupmode="layer"
     inkscape:label="Raccoon"
     transform="matrix(1.3333333,0,0,-1.3333333,0,570.67867)"><g
       id="g12"><g
         id="g14"><g
           id="g20"><g
             id="g22"><path
               d="m 40.109,177.429 c -13.386,0.472 -22.123,4.602 -27.781,10.264 v 0 C 9.51,176.395 9.666,164.942 12.497,153.906 v 0 c 11.972,-6.896 44.526,-21.237 75.068,4.508 v 0 c 10.873,9.163 17.775,18.159 22.015,26.558 v 0 c -3.541,3.799 -7.851,7.485 -13.163,10.999 v 0 c -2.918,1.933 -5.537,3.609 -7.903,5.075 v 0 C 81.117,190.13 67.511,176.464 40.109,177.429"
               style="fill:url(#linearGradient30);stroke:none"
               id="path32" /></g></g></g></g><g
       id="g34"><g
         id="g36"><g
           id="g42"><g
             id="g44"><path
               d="m 105.235,81.791 c 50.62,-5.796 87.952,25.208 87.952,25.208 v 0 c -17.353,-1.676 -38.366,-1.016 -51.517,7.638 v 0 C 135.666,103.298 124.782,91.121 105.235,81.791"
               style="fill:url(#linearGradient52);stroke:none"
               id="path54" /></g></g></g></g><g
       id="g56"><g
         id="g58"><g
           id="g64"><g
             id="g66"><path
               d="m 74.925,125.851 c -25.222,-7.839 -41.047,-4.09 -50.947,3.089 v 0 c 9.134,-13.366 22.611,-25.187 39.735,-34.117 v 0 c 12.575,-0.556 27.495,3.146 43.286,16.24 v 0 c 10.572,8.763 17.403,17.414 21.691,25.544 v 0 c -1.771,8.903 -3.09,18.187 -6.385,27.313 v 0 c -6.869,-14.203 -20.479,-29.709 -47.38,-38.069"
               style="fill:url(#linearGradient74);stroke:none"
               id="path76" /></g></g></g></g><g
       id="g78"><g
         id="g80"><g
           id="g86"><g
             id="g88"><path
               d="M 106.999,111.063 C 91.208,97.969 76.288,94.267 63.713,94.823 v 0 c 2.66,-1.383 5.403,-2.708 8.236,-3.949 v 0 c 11.531,-5.053 22.699,-7.872 33.286,-9.083 v 0 c 19.547,9.33 30.431,21.507 36.435,32.846 v 0 c -5.793,3.813 -10.068,9.171 -11.817,16.574 v 0 c -0.422,1.779 -0.8,3.58 -1.163,5.396 v 0 c -4.288,-8.13 -11.119,-16.781 -21.691,-25.544"
               style="fill:url(#linearGradient96);stroke:none"
               id="path98" /></g></g></g></g><g
       id="g100"><g
         id="g102"><g
           id="g108"><g
             id="g110"><path
               d="M 87.565,158.414 C 57.023,132.669 24.469,147.01 12.497,153.906 v 0 c 2.223,-8.671 6.096,-17.085 11.481,-24.966 v 0 c 9.9,-7.179 25.725,-10.928 50.947,-3.089 v 0 c 26.901,8.36 40.511,23.866 47.38,38.069 v 0 c -2.603,7.208 -6.444,14.314 -12.725,21.052 v 0 c -4.24,-8.399 -11.142,-17.395 -22.015,-26.558"
               style="fill:url(#linearGradient118);stroke:none"
               id="path120" /></g></g></g></g><g
       id="g122"><g
         id="g124"><g
           id="g130"><g
             id="g132"><path
               d="m 12.328,187.693 c 5.658,-5.662 14.395,-9.792 27.781,-10.264 v 0 c 27.402,-0.965 41.008,12.701 48.405,23.617 v 0 c -21.229,13.168 -21.884,9.297 -29.748,16.935 v 0 c -8.741,8.487 -10.995,18.858 -10.995,18.858 v 0 C 28.126,222.245 16.682,205.157 12.328,187.693"
               style="fill:url(#linearGradient140);stroke:none"
               id="path142" /></g></g></g></g><g
       id="g144"><g
         id="g146"
         clip-path="url(#clipPath150)"><g
           id="g152"><g
             id="g154" /><g
             id="g212"><g
               clip-path="url(#clipPath158)"
               opacity="0.710007"
               id="g210"><g
                 id="g208"><g
                   clip-path="url(#clipPath162)"
                   id="g206"><g
                     id="g204"><g
                       id="g196" /><g
                       mask="url(#mask176)"
                       id="g202"><g
                         id="g200"><path
                           d="m 355.058,38.097 c 0,-15.318 -71.495,-27.734 -159.696,-27.734 -88.195,0 -159.691,12.416 -159.691,27.734 0,15.316 71.496,27.731 159.691,27.731 88.201,0 159.696,-12.415 159.696,-27.731"
                           style="fill:url(#radialGradient194);stroke:none"
                           id="path198" /></g></g></g></g></g></g></g></g></g></g><g
       id="g214"><g
         id="g216"><g
           id="g222"><g
             id="g224"><path
               d="m 240.949,198.327 c -7.807,-6.545 -20.778,-15.544 -20.615,-16.859 v 0 c 3.158,-8.448 10.614,-13.29 10.614,-13.29 v 0 c 0,0 45.292,13.706 68.843,45.475 v 0 c -5.761,4.83 -11.056,10.163 -15.966,15.772 v 0 c -13.21,-17.095 -32.486,-22.39 -42.876,-31.098"
               style="fill:url(#linearGradient230);stroke:none"
               id="path232" /></g></g></g></g><g
       id="g234"><g
         id="g236"><g
           id="g242"><g
             id="g244"><path
               d="m 222.334,196.034 19.864,-25.471 c 0,0 20.302,6.714 19.865,11.112 v 0 c -0.438,4.405 -16.673,29.008 -16.673,29.008 v 0 z"
               style="fill:url(#linearGradient250);stroke:none"
               id="path252" /></g></g></g></g><g
       id="g254"><g
         id="g256"><g
           id="g262"><g
             id="g264"><path
               d="m 207.054,97.381 c 0,0 5.399,-30.252 1.551,-40.442 v 0 c -3.849,-10.19 -5.461,-14.356 5.414,-21.716 v 0 c 10.876,-7.355 35.128,-7.208 44.453,1.36 v 0 c 9.327,8.567 -2.951,15.295 -8.648,21.033 v 0 c -5.698,5.744 -6.469,45.435 -6.469,45.435 v 0 z"
               style="fill:url(#linearGradient270);stroke:none"
               id="path272" /></g></g></g></g><g
       id="g274"><g
         id="g276"><g
           id="g282"><g
             id="g284"><path
               d="m 111.627,156.918 c 0,0 -18.691,-3.452 -26.11,-20.45 v 0 c -7.417,-16.996 0.786,-29.953 5.525,-32.752 v 0 c 8.659,-5.107 18.279,-0.927 18.279,7.551 v 0 c 0,8.479 1.688,17.785 8.722,4.633 v 0 c 4.393,-8.211 15.287,-1.714 13.17,8.881 v 0 c -2.118,10.591 -4.406,22.252 -4.406,22.252 v 0 c 0,0 26.88,39.595 54.203,30.998 v 0 c 10.859,-3.421 11.204,34.815 11.204,34.815 v 0 c 0,0 -61.001,-10.576 -80.587,-55.928"
               style="fill:url(#linearGradient290);stroke:none"
               id="path292" /></g></g></g></g><g
       id="g294"><g
         id="g296"
         clip-path="url(#clipPath300)"><g
           id="g302"
           transform="translate(153.5513,149.6279)"><path
             d="m 0,0 c 0,-54.404 21.878,-62.641 48.867,-62.641 26.989,0 54.396,6.182 48.868,62.641 C 94.364,34.449 65.65,63.217 38.663,63.217 11.675,63.217 0,34.598 0,0"
             style="fill:#638ca6;fill-opacity:1;fill-rule:nonzero;stroke:none"
             id="path304" /></g><g
           id="g306"
           transform="translate(128.6274,183.4844)"><path
             d="m 0,0 c 0,0 14.996,-16.939 16.626,-20.983 0,0 3.69,3.491 6.843,6.06 0,0 -0.174,-57.859 2.607,-64.703 0,0 23.439,7.852 44.969,11.573 21.528,3.719 55.811,-1.632 55.811,-1.632 0,0 5.402,59.782 -27.973,85.254 -6.682,5.1 -73.959,-0.013 -73.959,-0.013 C 24.924,15.556 5.004,7.564 0,0"
             style="fill:#ffffff;fill-opacity:1;fill-rule:nonzero;stroke:none"
             id="path308" /></g></g></g><g
       id="g310"><g
         id="g312"><g
           id="g318"><g
             id="g320"><path
               d="m 153.552,199.04 c 0,0 -19.92,-7.992 -24.925,-15.555 v 0 c 0,0 14.996,-16.94 16.627,-20.984 v 0 c 0,0 3.69,3.491 6.842,6.061 v 0 c 0,0 -0.173,-57.86 2.608,-64.704 v 0 c 0,0 23.438,7.852 44.969,11.573 v 0 c 21.528,3.719 55.81,-1.631 55.81,-1.631 v 0 c 0,0 5.403,59.781 -27.972,85.253 v 0 c -2.224,1.697 -11.159,2.264 -22.091,2.264 v 0 c -21.919,0 -51.868,-2.277 -51.868,-2.277"
               style="fill:url(#linearGradient326);stroke:none"
               id="path328" /></g></g><g
           id="g330"
           transform="translate(142.814,110.7236)"><path
             d="m 0,0 c -5.692,0 -9.301,0.523 -9.643,0.571 l 0.8,5.303 -0.4,-2.651 0.394,2.651 c 0.191,-0.031 19.078,-2.717 39.746,4.879 27.53,10.124 45.102,32.817 52.23,67.456 2.37,11.522 -3.023,15.198 -7.356,18.147 -2.411,1.641 -4.904,3.339 -4.606,6.325 l 5.332,-0.529 c 0.023,0.238 -0.052,0.426 -0.081,0.47 0.233,-0.383 1.469,-1.223 2.368,-1.837 4.434,-3.016 12.681,-8.634 9.592,-23.657 C 78.976,31.448 52.818,13.045 32.528,5.644 19.791,1.004 7.893,0 0,0"
             style="fill:#1385bf;fill-opacity:1;fill-rule:nonzero;stroke:none"
             id="path332" /></g><g
           id="g334"
           transform="translate(248.9487,123.3193)"><path
             d="m 0,0 c -7.075,0 -14.989,1.063 -23.185,4.102 -21.458,7.951 -38.695,26.89 -51.234,56.296 -1.782,4.178 -2.816,12.057 -3.189,18.042 l 5.347,0.332 c 0.428,-6.851 1.54,-13.39 2.769,-16.27 C -41.379,-3.418 3.136,2.899 20.974,8.679 L 22.621,3.58 C 17.543,1.935 9.538,0 0,0"
             style="fill:#1385bf;fill-opacity:1;fill-rule:nonzero;stroke:none"
             id="path336" /></g><g
           id="g338"
           transform="translate(147.1855,136.5215)"><path
             d="M 0,0 C -2.879,0 -5.921,0.248 -8.323,1.029 L -9.978,1.57 -8.899,4.883 -7.243,4.344 C -1.668,2.523 8.759,4.15 8.867,4.169 c 29.984,3.37 40.12,37.268 40.221,37.609 l 3.251,0.252 C 67.427,9.479 94.44,-2.508 128.412,8.275 l 1.659,0.528 1.056,-3.319 -1.658,-0.526 C 94.941,-6.006 67.217,5.318 51,36.842 47.146,27.289 35.079,3.613 9.335,0.72 9.098,0.682 4.769,0 0,0"
             style="fill:#1385bf;fill-opacity:1;fill-rule:nonzero;stroke:none"
             id="path340" /></g><g
           id="g342"
           transform="translate(141.3257,123.832)"><path
             d="m 0,0 -0.334,3.467 1.733,0.165 c 59.659,5.744 66.975,51.48 67.043,51.942 l 3.251,0.584 c 11.726,-21.425 32.429,-25.393 32.635,-25.431 0.208,-0.044 16.831,-3.398 27.031,-0.304 l 1.668,0.505 1.011,-3.331 -1.668,-0.509 c -11.051,-3.354 -27.988,0.076 -28.702,0.223 -0.826,0.145 -20.086,3.841 -32.78,23.401 C 69.554,46.008 66.603,38.084 60.401,29.795 51.582,18.006 34.244,3.293 1.736,0.167 Z"
             style="fill:#1385bf;fill-opacity:1;fill-rule:nonzero;stroke:none"
             id="path344" /></g></g></g><g
       id="g346"><g
         id="g348"><g
           id="g354"><g
             id="g356"><path
               d="M 152.955,59.358 C 146.688,54.244 133.77,48.853 142.14,39.349 v 0 c 8.371,-9.504 32.477,-12.203 44.066,-6.03 v 0 c 11.59,6.174 10.425,10.487 7.672,21.022 v 0 c -2.757,10.542 5.791,40.057 5.791,40.057 v 0 l -35.5,9.46 c 0,0 -4.945,-39.389 -11.214,-44.5"
               style="fill:url(#linearGradient362);stroke:none"
               id="path364" /></g></g></g></g><g
       id="g366"><g
         id="g368"
         clip-path="url(#clipPath372)"><g
           id="g374"
           transform="translate(76.334,247.3496)"><path
             d="m 0,0 c 29.224,1.789 54.795,31.339 65.336,45.499 10.541,14.16 55.251,20.588 55.251,20.588 l 53.664,-14.094 c 0,0 18.292,-0.334 31.717,5.568 7.2,3.165 15.3,12.793 16.502,22.606 -9.833,12.253 -21.819,19.047 -21.819,19.047 5.73,-13.162 -1.534,-22.94 -1.534,-22.94 -20.224,67.116 -84.748,77.664 -84.748,77.664 29.099,-41.677 -2.231,-51.576 -7.839,-49.652 -5.604,1.922 0.412,7.462 -1.904,34.778 -2.314,27.316 -40.067,32.844 -40.067,32.844 C 86.326,164.039 54.696,123.672 16.117,89.768 -22.458,55.862 8.163,19.987 8.163,19.987 -4.779,20.428 -14.452,41.353 -14.452,41.353 L -20.764,22.009 C -21.175,19.956 -21.453,17.96 -21.633,16.007 -17.345,6.56 -10.604,-0.649 0,0"
             style="fill:#638ca6;fill-opacity:1;fill-rule:nonzero;stroke:none"
             id="path376" /></g><g
           id="g378"
           transform="translate(275.2109,283.9189)"><path
             d="m 0,0 c -31.101,-3.234 -57.03,-0.97 -69.515,0.06 -12.485,1.03 -65.1,-27.94 -77.068,-30.629 -11.969,-2.69 -22.314,-29.616 -46.088,-30.493 -6.417,-0.236 -11.855,1.861 -16.387,5.034 18.686,-21.91 55.048,-31.367 73.305,-33.109 27.152,-2.592 67.76,-7.167 67.76,-7.167 6.899,2.835 68.311,47.82 68.311,47.82 31.266,26.059 38.3,48.731 35.274,66.68 C 30.263,9.824 19.893,2.068 0,0"
             style="fill:#39393b;fill-opacity:1;fill-rule:nonzero;stroke:none"
             id="path380" /></g></g></g><g
       id="g382"><g
         id="g384"><g
           id="g390"><g
             id="g392"><path
               d="m 282.302,304.91 c -11.91,-4.099 -30.299,-4.311 -30.299,-4.311 v 0 l -55.082,12.838 c 0,0 -44.71,-6.428 -55.251,-20.589 v 0 C 131.129,278.689 105.557,249.138 76.334,247.35 v 0 C 65.73,246.701 58.99,253.91 54.701,263.356 v 0 c -1.318,-14.362 3.434,-26.063 11.452,-35.465 v 0 c 4.532,-3.174 9.97,-5.271 16.387,-5.034 v 0 c 23.774,0.878 34.119,27.803 46.087,30.493 v 0 c 11.968,2.689 64.584,31.658 77.069,30.629 v 0 c 12.485,-1.03 30.747,-6.22 61.848,-2.986 v 0 c 19.893,2.068 37.929,12.75 43.258,21.123 v 0 c -1.687,10.014 -6.508,18.558 -11.998,25.4 v 0 c -1.203,-9.812 -9.064,-20.046 -16.502,-22.606"
               style="fill:url(#linearGradient398);stroke:none"
               id="path400" /></g></g></g></g><g
       id="g402"><g
         id="g404"><g
           id="g410"><g
             id="g412"><path
               d="m 194.027,232.132 c -12.152,-2.647 -20.71,-10.737 -19.112,-18.069 v 0 c 1.598,-7.33 12.743,-11.126 24.896,-8.479 v 0 c 12.15,2.648 20.707,10.736 19.11,18.067 v 0 c -1.254,5.748 -8.377,9.323 -17.252,9.323 v 0 c -2.443,0 -5.019,-0.271 -7.642,-0.842"
               style="fill:url(#linearGradient420);stroke:none"
               id="path422" /></g></g></g></g><g
       id="g424"><g
         id="g426"><g
           id="g432"><g
             id="g434"><path
               d="m 226.273,353.268 c -19.337,-11.941 -8.315,-32.282 -8.315,-32.282 v 0 l -88.359,-19.248 c 0,0 7.33,24.793 -5.695,30.328 v 0 c -6.545,2.78 -37.122,-2.821 -37.775,-20.693 v 0 c -0.652,-17.872 17.729,-22.961 19.996,-22.921 v 0 c 0,0 -8.588,-37.788 -0.568,-43.314 v 0 c 8.025,-5.527 28.975,-7.781 28.975,-7.781 v 0 c 0,0 6.745,-12.171 12.785,-19.039 v 0 c 5.576,-6.333 11.424,-9.716 19.329,-8.448 v 0 c 7.908,1.27 27.794,13.713 27.794,13.713 v 0 l 33.409,-0.397 c 0,0 11.186,3.374 10.868,14.036 v 0 c -0.257,8.605 -0.565,19.071 -0.565,19.071 v 0 c 0,0 11.272,15.936 18.289,23.375 v 0 c 7.015,7.438 9.762,7.697 4.395,15.619 v 0 c -5.363,7.926 -13.98,20.532 -13.98,20.532 v 0 c 0,0 21.952,12.619 10.983,27.505 v 0 c -5.133,6.962 -16.843,11.379 -25.056,11.38 v 0 c -2.646,0 -4.926,-0.458 -6.51,-1.436"
               style="fill:url(#linearGradient442);stroke:none"
               id="path444" /></g></g></g></g><g
       id="g446"><g
         id="g448"><g
           id="g454"><g
             id="g456"><path
               d="m 124.472,261.009 c -4.405,-10.667 -11.259,-20.231 -11.259,-20.231 v 0 l 26.879,-33.769 c 0,0 18.452,-3.001 7.225,11.309 v 0 c -11.226,14.311 11.56,24.024 12.894,31.672 v 0 c 1.334,7.648 0,18.352 -8.333,28.019 v 0 c -1.806,2.094 -3.908,2.984 -6.14,2.984 v 0 c -8.067,-10e-4 -17.815,-11.629 -21.266,-19.984"
               style="fill:url(#linearGradient462);stroke:none"
               id="path464" /></g></g></g></g><g
       id="g466"><g
         id="g468"><g
           id="g474"><g
             id="g476"><path
               d="m 203.604,289.121 c -1.553,-12.668 3.289,-22.307 8.649,-27.923 v 0 c 5.361,-5.616 29.701,-1.022 28.323,-19.159 v 0 c -1.376,-18.136 12.294,-5.385 12.294,-5.385 v 0 l 3.571,43.014 c 0,0 -11.015,4.139 -20.606,10.557 v 0 c -5.282,3.534 -14.051,6.683 -21.123,6.683 v 0 c -5.77,0 -10.41,-2.095 -11.108,-7.787"
               style="fill:url(#linearGradient482);stroke:none"
               id="path484" /></g></g></g></g><g
       id="g486"><g
         id="g488"
         clip-path="url(#clipPath492)"><g
           id="g494"
           transform="translate(145.5176,266.2314)"><path
             d="m 0,0 c 1.058,-4.854 -0.514,-9.318 -3.508,-9.971 -2.998,-0.653 -6.284,2.753 -7.343,7.607 -1.058,4.855 0.516,9.319 3.512,9.971 C -4.345,8.26 -1.058,4.854 0,0"
             style="fill:#39393b;fill-opacity:1;fill-rule:nonzero;stroke:none"
             id="path496" /></g><g
           id="g498"
           transform="translate(227.2227,284.0298)"><path
             d="m 0,0 c 1.058,-4.853 -0.513,-9.318 -3.509,-9.971 -2.997,-0.651 -6.283,2.755 -7.34,7.609 -1.058,4.854 0.515,9.318 3.51,9.971 C -4.343,8.261 -1.056,4.855 0,0"
             style="fill:#39393b;fill-opacity:1;fill-rule:nonzero;stroke:none"
             id="path500" /></g><g
           id="g502"
           transform="translate(192.6445,231.8301)"><path
             d="m 0,0 -29.711,10.804 c 12.039,9.442 47.761,14.497 51.65,11.252 z"
             style="fill:#39393b;fill-opacity:1;fill-rule:nonzero;stroke:none"
             id="path504" /></g><g
           id="g506"
           transform="translate(193.4175,223.3608)"><path
             d="M 0,0 -2.974,13.638 -0.923,14.083 2.048,0.446 Z"
             style="fill:#39393b;fill-opacity:1;fill-rule:nonzero;stroke:none"
             id="path508" /></g><g
           id="g510"
           transform="translate(96.8413,310.375)"><path
             d="M 0,0 C 0,0 6.33,11.839 23.202,10.866 28.361,10.568 20.283,-9.536 20.283,-9.536 20.283,-9.536 0.439,-12.167 0,0"
             style="fill:#39393b;fill-opacity:1;fill-rule:nonzero;stroke:none"
             id="path512" /></g><g
           id="g514"
           transform="translate(250.5107,335.1182)"><path
             d="m 0,0 c 0,0 -8.081,10.72 -24.6,7.155 -5.05,-1.091 6.031,-19.707 6.031,-19.707 0,0 20.011,0.464 18.569,12.552"
             style="fill:#39393b;fill-opacity:1;fill-rule:nonzero;stroke:none"
             id="path516" /></g><g
           id="g518"
           transform="translate(163.6138,204.9951)"><path
             d="m 0,0 -0.982,1.854 c 8.929,4.72 31.4,16.621 31.4,16.621 l 0.23,0.121 H 66.596 V 16.497 H 31.168 C 28.778,15.231 8.396,4.439 0,0"
             style="fill:#39393b;fill-opacity:1;fill-rule:nonzero;stroke:none"
             id="path520" /></g></g></g><g
       id="g522"><g
         id="g524"><g
           id="g530"><g
             id="g532"><path
               d="m 320.496,285.686 c -5.691,-1.462 -5.282,-13.09 -11.018,-20.185 v 0 c -5.736,-7.096 -8.869,0.834 -11.262,6.871 v 0 c -2.394,6.035 -7.022,7.308 -12.431,2.753 v 0 c -5.133,-4.324 -1.027,-9.978 0.913,-16.31 v 0 c 1.94,-6.329 6.713,-12.864 2.951,-20.216 v 0 c -1.745,-3.405 -3.707,-6.435 -5.824,-9.174 v 0 c 4.91,-5.609 10.205,-10.942 15.966,-15.772 v 0 c 2.224,3.003 4.257,6.161 6.038,9.488 v 0 c 12.849,0.92 40.533,6.506 44.361,41.769 v 0 c 1.279,11.78 -9.543,13.581 -12.751,15.193 v 0 c -3.211,1.611 -11.376,-13.852 -11.376,-13.852 v 0 c 0,0 3.583,10.28 3.821,12.47 v 0 c 0.626,5.77 -1.639,7.607 -5.124,7.607 v 0 c -1.284,0 -2.732,-0.249 -4.264,-0.642"
               style="fill:url(#linearGradient538);stroke:none"
               id="path540" /></g></g></g></g><g
       id="g542"><g
         id="g544"
         clip-path="url(#clipPath548)"><g
           id="g550"
           transform="translate(328.1006,245.1782)"><path
             d="m 0,0 c 0,-7.219 -6.423,-13.072 -14.344,-13.072 -7.921,0 -14.343,5.853 -14.343,13.072 0,7.22 6.422,13.072 14.343,13.072 C -6.423,13.072 0,7.22 0,0"
             style="fill:#39393b;fill-opacity:1;fill-rule:nonzero;stroke:none"
             id="path552" /></g></g></g></g></svg>
